<mxfile host="app.diagrams.net" modified="2023-12-16T20:25:44.796Z" agent="Mozilla/5.0 (Macintosh; Intel Mac OS X 10_15_7) AppleWebKit/537.36 (KHTML, like Gecko) Chrome/120.0.0.0 Safari/537.36" etag="g-yO3dGLQBBs9K8yTx20" version="22.1.11" type="device">
  <diagram name="Page-1" id="FotJyMYxPPG-1ZSNtvxx">
    <mxGraphModel dx="1041" dy="642" grid="1" gridSize="10" guides="1" tooltips="1" connect="1" arrows="1" fold="1" page="1" pageScale="1" pageWidth="827" pageHeight="1169" math="0" shadow="0">
      <root>
        <mxCell id="0" />
        <mxCell id="1" parent="0" />
        <mxCell id="12mVil5Gus6428ghNcR8-54" style="edgeStyle=orthogonalEdgeStyle;rounded=0;orthogonalLoop=1;jettySize=auto;html=1;entryX=1;entryY=0.5;entryDx=0;entryDy=0;dashed=1;" edge="1" parent="1" source="12mVil5Gus6428ghNcR8-1" target="12mVil5Gus6428ghNcR8-26">
          <mxGeometry relative="1" as="geometry">
            <Array as="points">
              <mxPoint x="180" y="420" />
              <mxPoint x="390" y="420" />
              <mxPoint x="390" y="85" />
            </Array>
          </mxGeometry>
        </mxCell>
        <mxCell id="12mVil5Gus6428ghNcR8-1" value="scenario-callback" style="swimlane;whiteSpace=wrap;html=1;" vertex="1" parent="1">
          <mxGeometry x="40" y="180" width="280" height="210" as="geometry" />
        </mxCell>
        <mxCell id="12mVil5Gus6428ghNcR8-2" value="" style="edgeStyle=orthogonalEdgeStyle;rounded=0;orthogonalLoop=1;jettySize=auto;html=1;" edge="1" parent="12mVil5Gus6428ghNcR8-1" source="12mVil5Gus6428ghNcR8-3" target="12mVil5Gus6428ghNcR8-8">
          <mxGeometry relative="1" as="geometry" />
        </mxCell>
        <mxCell id="12mVil5Gus6428ghNcR8-3" value="" style="ellipse;whiteSpace=wrap;html=1;aspect=fixed;" vertex="1" parent="12mVil5Gus6428ghNcR8-1">
          <mxGeometry x="130" y="34" width="20" height="20" as="geometry" />
        </mxCell>
        <mxCell id="12mVil5Gus6428ghNcR8-4" value="" style="edgeStyle=orthogonalEdgeStyle;rounded=0;orthogonalLoop=1;jettySize=auto;html=1;" edge="1" parent="12mVil5Gus6428ghNcR8-1" source="12mVil5Gus6428ghNcR8-8" target="12mVil5Gus6428ghNcR8-13">
          <mxGeometry relative="1" as="geometry" />
        </mxCell>
        <mxCell id="12mVil5Gus6428ghNcR8-5" value="Callback throws/rejects" style="edgeLabel;html=1;align=center;verticalAlign=middle;resizable=0;points=[];" vertex="1" connectable="0" parent="12mVil5Gus6428ghNcR8-4">
          <mxGeometry x="-0.5027" y="-3" relative="1" as="geometry">
            <mxPoint x="-23" y="-9" as="offset" />
          </mxGeometry>
        </mxCell>
        <mxCell id="12mVil5Gus6428ghNcR8-6" value="" style="edgeStyle=orthogonalEdgeStyle;rounded=0;orthogonalLoop=1;jettySize=auto;html=1;" edge="1" parent="12mVil5Gus6428ghNcR8-1" source="12mVil5Gus6428ghNcR8-8" target="12mVil5Gus6428ghNcR8-14">
          <mxGeometry relative="1" as="geometry">
            <mxPoint x="210" y="170" as="targetPoint" />
          </mxGeometry>
        </mxCell>
        <mxCell id="12mVil5Gus6428ghNcR8-7" value="Callback returns value" style="edgeLabel;html=1;align=center;verticalAlign=middle;resizable=0;points=[];" vertex="1" connectable="0" parent="12mVil5Gus6428ghNcR8-6">
          <mxGeometry x="-0.7034" y="1" relative="1" as="geometry">
            <mxPoint x="36" y="-10" as="offset" />
          </mxGeometry>
        </mxCell>
        <mxCell id="12mVil5Gus6428ghNcR8-8" value="" style="rhombus;whiteSpace=wrap;html=1;" vertex="1" parent="12mVil5Gus6428ghNcR8-1">
          <mxGeometry x="122" y="100" width="36" height="36" as="geometry" />
        </mxCell>
        <mxCell id="12mVil5Gus6428ghNcR8-9" value="" style="group" vertex="1" connectable="0" parent="12mVil5Gus6428ghNcR8-1">
          <mxGeometry x="140" y="70" width="75.59" height="20" as="geometry" />
        </mxCell>
        <mxCell id="12mVil5Gus6428ghNcR8-10" value="" style="endArrow=none;dashed=1;html=1;dashPattern=1 3;strokeWidth=2;rounded=0;fillColor=#1ba1e2;strokeColor=#006EAF;" edge="1" parent="12mVil5Gus6428ghNcR8-9" target="12mVil5Gus6428ghNcR8-12">
          <mxGeometry width="50" height="50" relative="1" as="geometry">
            <mxPoint y="7" as="sourcePoint" />
            <mxPoint x="10.408534998698883" y="25.200000000000045" as="targetPoint" />
          </mxGeometry>
        </mxCell>
        <mxCell id="12mVil5Gus6428ghNcR8-11" value="started" style="edgeLabel;html=1;align=center;verticalAlign=middle;resizable=0;points=[];fontSize=12;fontColor=#006EAF;" vertex="1" connectable="0" parent="12mVil5Gus6428ghNcR8-10">
          <mxGeometry x="0.2113" relative="1" as="geometry">
            <mxPoint x="-4" y="-9" as="offset" />
          </mxGeometry>
        </mxCell>
        <mxCell id="12mVil5Gus6428ghNcR8-12" value="" style="sketch=0;outlineConnect=0;fontColor=#ffffff;fillColor=#006EAF;strokeColor=#006EAF;dashed=0;verticalLabelPosition=bottom;verticalAlign=top;align=center;html=1;fontSize=12;fontStyle=0;aspect=fixed;pointerEvents=1;shape=mxgraph.aws4.event;" vertex="1" parent="12mVil5Gus6428ghNcR8-9">
          <mxGeometry x="49.59" y="-6" width="26" height="26" as="geometry" />
        </mxCell>
        <mxCell id="12mVil5Gus6428ghNcR8-13" value="" style="ellipse;whiteSpace=wrap;html=1;" vertex="1" parent="12mVil5Gus6428ghNcR8-1">
          <mxGeometry x="20" y="170" width="20" height="20" as="geometry" />
        </mxCell>
        <mxCell id="12mVil5Gus6428ghNcR8-14" value="" style="ellipse;whiteSpace=wrap;html=1;" vertex="1" parent="12mVil5Gus6428ghNcR8-1">
          <mxGeometry x="240" y="170" width="20" height="20" as="geometry" />
        </mxCell>
        <mxCell id="12mVil5Gus6428ghNcR8-15" value="" style="group" vertex="1" connectable="0" parent="12mVil5Gus6428ghNcR8-1">
          <mxGeometry x="30" y="140" width="70" height="20" as="geometry" />
        </mxCell>
        <mxCell id="12mVil5Gus6428ghNcR8-16" value="" style="endArrow=none;dashed=1;html=1;dashPattern=1 3;strokeWidth=2;rounded=0;fillColor=#1ba1e2;strokeColor=#006EAF;" edge="1" parent="12mVil5Gus6428ghNcR8-15" target="12mVil5Gus6428ghNcR8-18">
          <mxGeometry width="50" height="50" relative="1" as="geometry">
            <mxPoint y="9.710000000000008" as="sourcePoint" />
            <mxPoint x="129" y="9.710000000000008" as="targetPoint" />
          </mxGeometry>
        </mxCell>
        <mxCell id="12mVil5Gus6428ghNcR8-17" value="rejected" style="edgeLabel;html=1;align=left;verticalAlign=middle;resizable=0;points=[];fontSize=12;fontColor=#006EAF;rotation=0;" vertex="1" connectable="0" parent="12mVil5Gus6428ghNcR8-16">
          <mxGeometry x="0.2113" relative="1" as="geometry">
            <mxPoint x="-26" y="-12" as="offset" />
          </mxGeometry>
        </mxCell>
        <mxCell id="12mVil5Gus6428ghNcR8-18" value="" style="sketch=0;outlineConnect=0;fontColor=#ffffff;fillColor=#006EAF;strokeColor=#006EAF;dashed=0;verticalLabelPosition=bottom;verticalAlign=top;align=center;html=1;fontSize=12;fontStyle=0;aspect=fixed;pointerEvents=1;shape=mxgraph.aws4.event;" vertex="1" parent="12mVil5Gus6428ghNcR8-15">
          <mxGeometry x="50" width="20" height="20" as="geometry" />
        </mxCell>
        <mxCell id="12mVil5Gus6428ghNcR8-19" value="" style="group" vertex="1" connectable="0" parent="12mVil5Gus6428ghNcR8-1">
          <mxGeometry x="180" y="140.2" width="70" height="18.80000000000001" as="geometry" />
        </mxCell>
        <mxCell id="12mVil5Gus6428ghNcR8-20" value="" style="sketch=0;outlineConnect=0;fontColor=#ffffff;fillColor=#006EAF;strokeColor=#006EAF;dashed=0;verticalLabelPosition=bottom;verticalAlign=top;align=center;html=1;fontSize=12;fontStyle=0;aspect=fixed;pointerEvents=1;shape=mxgraph.aws4.event;" vertex="1" parent="12mVil5Gus6428ghNcR8-19">
          <mxGeometry width="18.799999999999997" height="18.799999999999997" as="geometry" />
        </mxCell>
        <mxCell id="12mVil5Gus6428ghNcR8-21" value="" style="endArrow=none;dashed=1;html=1;dashPattern=1 3;strokeWidth=2;rounded=0;fillColor=#1ba1e2;strokeColor=#006EAF;" edge="1" parent="12mVil5Gus6428ghNcR8-19" target="12mVil5Gus6428ghNcR8-20">
          <mxGeometry width="50" height="50" relative="1" as="geometry">
            <mxPoint x="70" y="8.510000000000048" as="sourcePoint" />
            <mxPoint x="150.83999999999997" y="8.510000000000048" as="targetPoint" />
          </mxGeometry>
        </mxCell>
        <mxCell id="12mVil5Gus6428ghNcR8-22" value="fulfilled" style="edgeLabel;html=1;align=right;verticalAlign=middle;resizable=0;points=[];fontSize=12;fontColor=#006EAF;rotation=0;" vertex="1" connectable="0" parent="12mVil5Gus6428ghNcR8-21">
          <mxGeometry x="0.2113" relative="1" as="geometry">
            <mxPoint x="28" y="-12" as="offset" />
          </mxGeometry>
        </mxCell>
        <mxCell id="12mVil5Gus6428ghNcR8-23" style="edgeStyle=orthogonalEdgeStyle;rounded=0;orthogonalLoop=1;jettySize=auto;html=1;" edge="1" parent="1" source="12mVil5Gus6428ghNcR8-26" target="12mVil5Gus6428ghNcR8-1">
          <mxGeometry relative="1" as="geometry" />
        </mxCell>
        <mxCell id="12mVil5Gus6428ghNcR8-26" value="" style="rounded=0;whiteSpace=wrap;html=1;" vertex="1" parent="1">
          <mxGeometry x="40" y="50" width="240" height="70" as="geometry" />
        </mxCell>
        <mxCell id="12mVil5Gus6428ghNcR8-27" value="Infinite scenario - Cyclic" style="text;html=1;strokeColor=none;fillColor=none;align=center;verticalAlign=middle;whiteSpace=wrap;rounded=0;fontSize=16;" vertex="1" parent="1">
          <mxGeometry x="77.5" y="54" width="172.5" height="30" as="geometry" />
        </mxCell>
        <mxCell id="12mVil5Gus6428ghNcR8-28" value="" style="group" vertex="1" connectable="0" parent="1">
          <mxGeometry x="75" y="67" width="190" height="44" as="geometry" />
        </mxCell>
        <mxCell id="12mVil5Gus6428ghNcR8-29" value="&lt;font style=&quot;font-size: 10px;&quot;&gt;Trigger&lt;/font&gt;" style="rounded=0;whiteSpace=wrap;html=1;dashed=1;" vertex="1" parent="12mVil5Gus6428ghNcR8-28">
          <mxGeometry x="-20" y="24" width="210" height="20" as="geometry" />
        </mxCell>
        <mxCell id="12mVil5Gus6428ghNcR8-53" value="All consecutive triggers are ignored until previous callback is finished" style="text;html=1;strokeColor=none;fillColor=none;align=center;verticalAlign=middle;whiteSpace=wrap;rounded=0;fontColor=#6E4201;fontStyle=2" vertex="1" parent="1">
          <mxGeometry x="180" y="130" width="210" height="30" as="geometry" />
        </mxCell>
      </root>
    </mxGraphModel>
  </diagram>
</mxfile>
